<svg xmlns="http://www.w3.org/2000/svg" viewBox="0 0 100 100">
  <!-- Top half (red) -->
  <path d="M 50 5 A 45 45 0 0 1 95 50 L 62 50 A 12 12 0 0 0 38 50 L 5 50 A 45 45 0 0 1 50 5 Z" fill="#CC0000"/>
  <!-- Bottom half (white) -->
  <path d="M 5 50 A 45 45 0 0 0 50 95 A 45 45 0 0 0 95 50 L 62 50 A 12 12 0 0 1 38 50 Z" fill="#FFFFFF"/>
  <!-- Outer circle border -->
  <circle cx="50" cy="50" r="45" fill="none" stroke="#1a1a1a" stroke-width="5"/>
  <!-- Middle band -->
  <line x1="5" y1="50" x2="38" y2="50" stroke="#1a1a1a" stroke-width="5"/>
  <line x1="62" y1="50" x2="95" y2="50" stroke="#1a1a1a" stroke-width="5"/>
  <!-- Center button -->
  <circle cx="50" cy="50" r="12" fill="#FFFFFF" stroke="#1a1a1a" stroke-width="5"/>
  <circle cx="50" cy="50" r="5" fill="#FFFFFF"/>
</svg>
